<svg width="24" height="24" viewBox="0 0 24 24" fill="none" xmlns="http://www.w3.org/2000/svg">
<path d="M17.82 15.36C17.82 14.28 18.6 13.62 19.32 13.62C19.98 13.62 20.76 14.28 20.76 15.36C20.76 16.44 19.98 17.1 19.32 17.1C18.6 17.1 17.82 16.44 17.82 15.36ZM17.82 10.8C17.82 9.72 18.6 9.06 19.32 9.06C19.98 9.06 20.76 9.72 20.76 10.8C20.76 11.88 19.98 12.54 19.32 12.54C18.6 12.54 17.82 11.88 17.82 10.8ZM12 3C14.76 3 16.98 5.22 16.98 7.98C16.98 9.72 16.02 11.22 14.58 12.18C15.9 13.08 16.86 14.58 16.86 16.32C16.86 19.08 14.76 21.3 12 21.3C9.24 21.3 7.02 19.08 7.02 16.32C7.02 14.58 7.98 13.08 9.3 12.18C7.86 11.22 6.9 9.72 6.9 7.98C6.9 5.22 9.12 3 12 3ZM12 4.08C9.72 4.08 7.8 5.94 7.8 8.22C7.8 10.5 9.72 12.36 12 12.36C14.28 12.36 16.2 10.5 16.2 8.22C16.2 5.94 14.28 4.08 12 4.08ZM12 13.44C9.72 13.44 7.8 15.3 7.8 17.58C7.8 19.86 9.72 21.72 12 21.72C14.28 21.72 16.2 19.86 16.2 17.58C16.2 15.3 14.28 13.44 12 13.44Z" fill="black"/>
</svg>