<svg width="24" height="24" viewBox="0 0 24 24" fill="none" xmlns="http://www.w3.org/2000/svg">
<path d="M12.24 10.28V13.72H17.4C17.18 14.92 16.44 16.02 15.36 16.74C14.28 17.46 12.96 17.88 11.52 17.88C8.4 17.88 5.88 15.36 5.88 12.24C5.88 9.12 8.4 6.6 11.52 6.6C13.2 6.6 14.64 7.26 15.72 8.28L18.24 5.76C16.44 4.08 14.16 3 11.52 3C6.6 3 2.52 7.08 2.52 12C2.52 16.92 6.6 21 11.52 21C16.14 21 19.38 17.76 19.38 12.24C19.38 11.4 19.26 10.74 19.14 10.08H12.24Z" fill="#4285F4"/>
<path d="M21 12H19.38C19.26 10.74 19.14 10.08 19.14 10.08L12.24 10.28V13.72H17.4C17.18 14.92 16.44 16.02 15.36 16.74C14.28 17.46 12.96 17.88 11.52 17.88C8.4 17.88 5.88 15.36 5.88 12.24C5.88 9.12 8.4 6.6 11.52 6.6C13.2 6.6 14.64 7.26 15.72 8.28L18.24 5.76C16.44 4.08 14.16 3 11.52 3C6.6 3 2.52 7.08 2.52 12C2.52 16.92 6.6 21 11.52 21C16.14 21 19.38 17.76 19.38 12.24C19.38 11.4 19.26 10.74 19.14 10.08H12.24Z" fill="#FBBC05"/>
<path d="M11.52 6.6C13.2 6.6 14.64 7.26 15.72 8.28L18.24 5.76C16.44 4.08 14.16 3 11.52 3C6.6 3 2.52 7.08 2.52 12C2.52 16.92 6.6 21 11.52 21C16.14 21 19.38 17.76 19.38 12.24C19.38 11.4 19.26 10.74 19.14 10.08H12.24V13.72H17.4C17.18 14.92 16.44 16.02 15.36 16.74C14.28 17.46 12.96 17.88 11.52 17.88C8.4 17.88 5.88 15.36 5.88 12.24C5.88 9.12 8.4 6.6 11.52 6.6Z" fill="#34A853"/>
<path d="M11.52 3C6.6 3 2.52 7.08 2.52 12C2.52 16.92 6.6 21 11.52 21C16.14 21 19.38 17.76 19.38 12.24C19.38 11.4 19.26 10.74 19.14 10.08H12.24V13.72H17.4C17.18 14.92 16.44 16.02 15.36 16.74C14.28 17.46 12.96 17.88 11.52 17.88C8.4 17.88 5.88 15.36 5.88 12.24C5.88 9.12 8.4 6.6 11.52 6.6Z" fill="#EA4335"/>
</svg>